:SAMPLES-PER-SECOND 25
:FULLY-SPECIFIED
:DEGREES
602
root  13.5614 48.2037 -46.9445 175.902 -2.63841 -177.668
RightUpLeg  -22.0017 -3.98959 -0.997923
RightLeg  50.5209 -1.41372 -2.23283
RightFoot  -3.18903 -0.472871 6.08141
RightToes  2.84633e-005 7.89722e-005 -0.000426369
Spine  1.77271 -2.24363 -1.30348
Spine1  3.59499 -4.76375 -0.0669621
HEad  31.4525 3.52173 -9.12123
LeftShoulder1  -3.88251e-019 0 -3.92111e-022
LeftArm  -28.3813 -10.2157 -90.653
LeftForeArm  35.5014 -3.9252 -5.02872
LeftHand  -0.788155 -5.34108 8.82446
RightShoulder  7.45443e-017 -2.42657e-020 1.96277e-018
RightArm  -31.9347 -23.7813 74.1211
RightForeArm  16.5288 8.31621 4.53553
RightHand  -1.04117 8.78343 -8.87621
LeftUpLeg  4.91394 0.917705 -1.31684
LeftLeg  24.744 -0.823239 -0.0720227
LeftFoot  -31.01 0.719923 3.0731
LeftToes  3.91355e-005 3.11907e-005 -4.10385e-006
603
root  13.9198 47.6523 -48.5141 176.51 -3.7847 -178.376
RightUpLeg  -19.8906 -3.79322 -1.97675
RightLeg  31.5614 -0.30784 -0.48911
RightFoot  7.22798 -1.65948 10.4184
RightToes  2.84633e-005 7.89722e-005 -0.000426369
Spine  1.68523 -2.38804 -0.604886
Spine1  3.38325 -4.64731 -0.969659
HEad  30.5732 3.40773 -8.91446
LeftShoulder1  -3.88251e-019 0 -3.92111e-022
LeftArm  -26.3611 -12.4497 -90.864
LeftForeArm  38.7132 -5.29166 -5.67688
LeftHand  -0.910772 -5.1959 10.2745
RightShoulder  7.45443e-017 -2.42657e-020 1.96277e-018
RightArm  -31.0716 -22.2588 73.6035
RightForeArm  16.6959 7.78433 5.16428
RightHand  -1.22824 9.35631 -10.0179
LeftUpLeg  5.94987 0.97987 -1.00167
LeftLeg  27.1489 -2.05344 -0.789899
LeftFoot  -34.0577 0.767061 2.79116
LeftToes  3.91355e-005 3.11907e-005 -4.10385e-006
604
root  14.256 46.9077 -50.161 176.512 -4.62048 -178.925
RightUpLeg  -16.0756 -2.80139 -2.84253
RightLeg  13.4645 1.11512 0.157015
RightFoot  14.7366 -2.68053 12.0208
RightToes  2.84633e-005 7.89722e-005 -0.000426369
Spine  1.81089 -2.41081 0.204706
Spine1  3.44552 -4.36477 -1.60154
HEad  30.6218 3.58003 -8.92086
LeftShoulder1  -3.88251e-019 0 -3.92111e-022
LeftArm  -24.7922 -13.9847 -90.29
LeftForeArm  41.5614 -5.37545 -6.35648
LeftHand  -0.943348 -5.07834 10.7427
RightShoulder  7.45443e-017 -2.42657e-020 1.96277e-018
RightArm  -29.7262 -21.2785 72.6975
RightForeArm  19.7489 7.6131 6.31053
RightHand  -1.24581 9.48991 -10.0653
LeftUpLeg  7.00741 0.936788 -0.588724
LeftLeg  31.3027 -2.41822 -1.21193
LeftFoot  -37.9493 0.921055 2.91926
LeftToes  3.91355e-005 3.11907e-005 -4.10385e-006
605
root  14.6981 45.705 -51.9667 176.968 -5.5775 -179.728
RightUpLeg  -15.9852 -2.26373 -3.30071
RightLeg  5.51585 2.03787 -0.657506
RightFoot  17.5226 -3.05539 12.3239
RightToes  2.84633e-005 7.89722e-005 -0.000426369
Spine  1.55103 -2.30397 0.377911
Spine1  2.7366 -3.94308 -2.44613
HEad  31.331 3.47177 -8.68116
LeftShoulder1  -3.88251e-019 0 -3.92111e-022
LeftArm  -24.0327 -14.4658 -89.3963
LeftForeArm  42.6575 -5.0866 -6.88001
LeftHand  -0.904004 -4.9051 10.4724
RightShoulder  7.45443e-017 -2.42657e-020 1.96277e-018
RightArm  -28.6726 -21.655 71.8735
RightForeArm  21.9253 8.29465 7.18342
RightHand  -1.20955 9.66495 -9.67878
LeftUpLeg  6.69127 2.41292 0.81934
LeftLeg  38.7235 -4.43279 -3.43344
LeftFoot  -42.5118 1.15987 3.2258
LeftToes  3.91355e-005 3.11907e-005 -4.10385e-006
606
root  15.206 44.0968 -53.924 178.021 -6.03773 179.389
RightUpLeg  -17.8639 -2.2109 -3.52389
RightLeg  4.91705 1.0325 -1.41566
RightFoot  22.7599 -4.00394 13.5286
RightToes  2.84633e-005 7.89722e-005 -0.000426369
Spine  0.989786 -2.01635 0.267405
Spine1  1.42656 -3.15371 -3.3636
HEad  31.8357 3.31148 -8.35968
LeftShoulder1  -3.88251e-019 0 -3.92111e-022
LeftArm  -24.3657 -13.6697 -88.5505
LeftForeArm  41.9296 -5.45857 -6.74607
LeftHand  -0.860442 -4.88281 10.0051
RightShoulder  7.45443e-017 -2.42657e-020 1.96277e-018
RightArm  -28.2068 -22.8304 71.4566
RightForeArm  21.5374 9.58174 7.13149
RightHand  -1.16029 9.64246 -9.31519
LeftUpLeg  6.01091 3.88357 2.83369
LeftLeg  47.6962 -6.64358 -7.34687
LeftFoot  -46.3177 1.40346 3.55054
LeftToes  3.91355e-005 3.11907e-005 -4.10385e-006
607
root  15.7526 42.1767 -55.9868 178.614 -6.72482 177.986
RightUpLeg  -17.2666 -3.26688 -4.53792
RightLeg  6.89716 -0.182749 -0.660062
RightFoot  25.5011 -4.18295 13.0622
RightToes  2.84633e-005 7.89722e-005 -0.000426369
Spine  0.69082 -2.03093 -0.123394
Spine1  0.660332 -2.75804 -4.54435
HEad  31.1988 3.40642 -8.11933
LeftShoulder1  -3.88251e-019 0 -3.92111e-022
LeftArm  -25.2401 -11.1259 -87.1608
LeftForeArm  39.392 -7.89204 -7.10878
LeftHand  -0.783819 -4.83061 9.18754
RightShoulder  7.45443e-017 -2.42657e-020 1.96277e-018
RightArm  -27.7848 -24.1674 71.2916
RightForeArm  19.6178 11.1115 6.90527
RightHand  -1.1623 9.43826 -9.4495
LeftUpLeg  6.27895 3.82609 4.35192
LeftLeg  57.2142 -7.45978 -11.8001
LeftFoot  -49.446 1.64885 3.89574
LeftToes  3.91355e-005 3.11907e-005 -4.10385e-006
608
root  16.2728 40.2434 -57.8977 178.503 -7.88345 178.146
RightUpLeg  -15.6327 -4.83034 -3.59646
RightLeg  12.331 0.385233 0.680272
RightFoot  14.651 -1.78075 7.69062
RightToes  2.84633e-005 7.89722e-005 -0.000426369
Spine  0.936382 -2.32019 0.117687
Spine1  1.0064 -2.71602 -4.13276
HEad  28.9893 3.21374 -7.90065
LeftShoulder1  -3.88251e-019 0 -3.92111e-022
LeftArm  -24.6048 -7.91016 -85.2078
LeftForeArm  35.2815 -11.2067 -7.86745
LeftHand  -0.75424 -4.80974 8.87692
RightShoulder  7.45443e-017 -2.42657e-020 1.96277e-018
RightArm  -28.2011 -24.8218 70.994
RightForeArm  18.5547 10.9657 6.97244
RightHand  -1.32266 10.06 -10.2841
LeftUpLeg  5.86749 2.38211 7.23774
LeftLeg  68.7436 -5.73035 -15.3025
LeftFoot  -48.5014 1.31491 3.02026
LeftToes  3.91355e-005 3.11907e-005 -4.10385e-006
609
root  16.6344 38.4087 -59.56 177.731 -7.68906 -178.75
RightUpLeg  -18.2896 -6.36871 1.39564
RightLeg  25.7673 2.03205 1.02151
RightFoot  -4.62646 -0.099644 0.3986
RightToes  2.84633e-005 7.89722e-005 -0.000426369
Spine  1.512 -2.05672 1.4547
Spine1  2.05671 -1.72054 -1.15875
HEad  26.5874 2.8162 -8.31659
LeftShoulder1  -3.88251e-019 0 -3.92111e-022
LeftArm  -28.5829 -5.93842 -84.0352
LeftForeArm  35.7541 -9.21506 -7.24048
LeftHand  -0.94282 -5.29347 10.5064
RightShoulder  7.45443e-017 -2.42657e-020 1.96277e-018
RightArm  -29.6055 -22.9561 70.5986
RightForeArm  20.8562 7.45676 5.626
RightHand  -1.38032 10.5635 -10.4072
LeftUpLeg  3.59784 0.429561 11.5112
LeftLeg  83.0702 -1.52178 -13.5848
LeftFoot  -39.291 0.357251 0.353033
LeftToes  3.91355e-005 3.11907e-005 -4.10385e-006
